<?xml version="1.0" encoding="UTF-8"?>
<svg width="1373px" height="822px" viewBox="0 0 1373 822" version="1.1" xmlns="http://www.w3.org/2000/svg" xmlns:xlink="http://www.w3.org/1999/xlink">
    <!-- Generator: Sketch 48.2 (47327) - http://www.bohemiancoding.com/sketch -->
    <title>Page 1</title>
    <desc>Created with Sketch.</desc>
    <defs></defs>
    <g id="option-2" stroke="none" stroke-width="1" fill="none" fill-rule="evenodd" transform="translate(-31.000000, -1096.000000)">
        <g id="page-2" transform="translate(34.000000, 1099.000000)" stroke="#FF4500" stroke-width="5">
            <path d="M1311.31239,11.7433216 C1288.43285,2.1298261 1263.13168,-1.78570093 1238.42953,0.756469606 C1210.79803,3.59814874 1186.9871,17.7371461 1160.18108,23.4424196 C1152.11261,25.1591152 1143.96744,25.8384884 1135.78939,24.687937 C1128.91896,23.7236655 1122.38456,21.1194017 1115.49221,20.3341047 C1102.95668,18.9059601 1092.00635,25.9261494 1081.26787,31.3684398 C1053.79344,45.291937 1026.3957,59.5551208 1000.73293,76.6563312 C976.209752,92.9978125 955.510786,112.400126 934.691285,133.091787 C912.388853,155.255423 888.490258,171.140336 856.117762,171.498285 C829.527242,171.794141 803.554003,164.671681 777.292213,161.537798 C749.459828,158.217636 724.096564,161.705815 698.021053,172.071735 C666.831981,184.468469 638.491893,199.264924 604.694905,203.392298 C590.179695,205.167435 575.759452,206.906046 562.204862,212.739158 C549.037441,218.411559 537.309123,226.794147 525.986237,235.476244 C513.633333,244.950943 501.609159,254.889514 488.215281,262.903196 C473.287334,271.837318 457.175963,278.598177 440.754126,284.252315 C409.736723,294.9287 377.65643,302.540602 346.127672,311.522207 C232.208481,343.975059 113.164771,387.155433 34.3063489,480.094412 C25.5694639,486.16494 -0.747114634,532.431713 0.0162670348,532.409798 C0.564148615,533.041688 1.48093713,533.337544 2.43059853,532.796967 C134.890102,457.510733 286.2223,416.806784 438.595472,415.579529 C457.442598,415.429775 476.289725,415.879038 495.103978,416.938276 C503.723982,417.424064 513.443401,417.128208 521.822337,419.403743 C533.210968,422.5011 538.550988,431.347561 543.237201,441.348226 C551.996002,460.030988 561.229633,478.772191 568.976678,497.893258 C572.64018,506.922346 575.324799,516.597935 572.505035,526.284481 C570.127229,534.455222 564.516922,541.208776 559.030801,547.505761 C551.192442,556.491019 542.908472,565.056235 538.54003,576.375468 C534.014528,588.092829 533.736935,600.876732 534.854613,613.240593 C537.327385,640.543359 548.471297,670.950787 536.816029,697.501128 C534.083926,703.717758 529.543814,709.539912 531.107103,716.720814 C532.261307,722.031613 536.388682,725.698767 540.643895,728.715768 C548.792721,734.49044 557.412724,738.639729 564.560753,745.849851 C571.672255,753.030752 577.468843,761.395078 583.228904,769.660785 C599.252614,792.668158 621.135005,821.041119 652.966924,814.857362 C653.817967,814.692998 654.46812,813.827345 654.398722,812.965345 C653.901976,806.934995 652.871958,800.68184 652.882916,794.63688 C652.890221,791.561438 651.96978,789.610979 654.676315,787.671478 C656.433188,786.415003 662.061759,785.753893 663.438768,785.593181 C674.90045,784.234435 686.205074,787.58747 695.285298,794.611312 C696.443154,795.509838 698.795392,795.002134 698.565282,793.168557 C697.228451,782.510434 693.473636,773.313328 687.092642,764.970918 C699.489376,762.607722 711.886109,760.240874 724.282843,757.874025 C725.126581,757.713314 725.787691,756.880534 725.68542,756.025838 C724.224403,743.859215 712.616618,738.069933 701.191461,738.033407 C682.066741,737.971314 665.385573,752.793337 646.724727,741.105197 C630.335763,730.841548 622.24903,710.201023 613.30395,694.549872 C609.319025,687.179039 605.337752,679.811858 601.349174,672.437372 C595.567197,661.041435 586.760914,649.280244 585.084397,636.127433 C582.67737,617.236476 598.357741,603.477344 610.99189,591.935305 C624.064345,579.995139 636.015468,567.17471 646.279117,552.714289 C656.893409,537.768079 665.677777,521.561742 672.391153,504.504362 C675.663832,496.176562 677.606985,486.080931 683.706734,479.232411 C692.15872,469.750407 704.840352,473.158231 715.732238,474.422011 C731.29938,476.226368 742.278927,471.569374 753.79905,461.276506 C765.154809,451.137044 777.661119,433.016774 794.773287,436.563394 C789.53554,479.528267 778.040984,521.338937 760.443028,560.903292 C760.085078,561.703199 760.154477,562.616335 760.815587,563.248225 C777.197246,578.873808 790.404845,597.476214 799.3134,618.324934 C803.382333,627.850769 806.545436,637.767425 808.751573,647.884972 C810.778735,657.177044 810.351387,668.207726 814.438584,676.955569 C821.155612,691.335634 844.301782,691.383117 857.560517,694.180966 C881.393365,699.214171 905.229867,704.247376 929.062715,709.276929 C930.724623,709.627574 932.024928,707.859742 931.195801,706.380462 C928.62441,701.789214 926.053019,697.201619 923.481628,692.606719 C919.723161,685.889691 916.903397,683.610504 924.566434,678.212044 C934.413692,671.27221 945.773104,667.444344 957.724227,666.344929 C959.203507,666.209785 960.123948,664.723199 959.345957,663.375411 C953.395963,653.082542 942.434678,650.240863 931.265199,648.998998 C916.322642,647.340743 901.847611,646.727116 887.449283,641.810792 C852.87065,630.013075 820.399535,600.610097 828.880742,560.925208 C838.439449,516.192503 892.858701,476.478393 892.891573,429.440933 C892.902531,416.178547 900.382941,404.161677 912.513039,398.792438 C913.484616,398.361438 914.426972,397.875649 915.383939,397.404471 C916.081574,403.022084 916.395693,409.059739 920.219907,412.730545 C925.727943,418.012124 936.73671,417.862369 943.709416,418.822988 C954.502683,420.302269 966.413629,421.997049 974.975192,429.400755 C979.018558,432.892587 987.810231,449.285204 988.336197,460.451031 C984.139424,462.328438 982.718585,462.967634 980.077796,464.147405 L979.036821,461.711158 C978.507202,460.483904 976.801464,459.665734 975.760489,460.922209 C971.150978,466.485033 978.459719,472.43868 983.145932,474.546198 C987.985553,476.723114 995.440395,475.284011 999.516634,472.044205 C1006.02181,466.875855 1002.08437,459.74609 1002.28161,452.744163 C1002.6213,450.231213 1002.88063,447.72922 1003.13631,445.329499 C1003.80472,439.105564 1006.17157,429.199865 1002.5592,423.483634 C1001.5511,421.887473 1000.52108,421.295761 998.811693,420.309574 C994.096259,417.588428 990.242825,415.648928 986.195807,411.992731 C981.26122,407.532975 976.476387,403.084177 969.569427,402.276965 C967.699324,402.057812 965.880358,402.152778 964.086959,402.404804 C959.115846,402.492465 954.221438,403.770855 949.279546,404.20916 C947.405791,404.373525 945.707358,404.340652 944.133111,404.158025 C941.269517,401.966498 942.131517,397.028259 942.025594,392.382223 C941.894102,386.618509 941.941585,380.858447 942.062119,375.094733 C949.038478,365.26939 953.505539,354.202182 959.857313,343.094796 C961.581313,340.077795 963.608475,337.334735 965.825569,334.770649 C969.321054,346.407654 972.750793,358.066574 976.381421,369.6634 C978.083507,375.094733 979.171965,379.149057 985.487213,377.450624 C996.539811,374.481106 1002.7747,365.320526 1011.62116,359.359574 C1019.10888,354.315411 1027.27231,354.183919 1035.74256,356.437539 C1039.8809,357.533302 1045.04559,359.644473 1047.8617,363.099779 L1051.90507,369.889858 C1049.38847,379.685981 1045.80898,382.637236 1041.1739,378.743624 C1039.8115,377.885277 1038.42353,379.141752 1038.29569,380.482235 C1037.70763,386.746348 1044.48675,390.011722 1049.00495,393.149257 C1053.29304,396.126081 1057.20126,398.124022 1061.44186,394.106224 C1064.06074,391.622494 1064.26893,388.521484 1065.23686,385.230542 C1066.53716,380.800007 1069.86828,377.483497 1071.14667,373.177148 C1073.04234,366.792501 1069.62721,358.760557 1068.00183,352.704639 C1066.47142,346.999366 1065.53271,337.19959 1059.9845,333.612792 C1054.26096,329.912765 1043.99001,333.598182 1037.91948,334.474793 C1029.27391,335.727615 1020.11333,336.392378 1011.80744,339.259625 C1002.84045,342.356982 996.890455,350.779749 988.434816,354.187572 C988.639358,345.51278 989.534232,336.91104 991.473732,328.422528 C992.635241,323.334534 994.439598,318.717718 994.326369,313.859835 C1000.63431,310.488537 1007.05183,307.369265 1013.08949,304.136763 C1034.69428,292.565504 1056.28812,280.979635 1077.90388,269.426639 C1090.98729,262.432017 1100.77976,259.031499 1115.38628,263.290365 C1124.92673,266.073604 1133.88277,268.03502 1143.88708,267.297206 C1162.46392,265.920197 1179.80255,258.008787 1196.62251,250.612386 C1238.91897,232.017285 1282.57417,215.102354 1323.80774,194.253634 C1340.13827,185.995232 1356.52358,174.694261 1363.48533,157.034212 C1369.46454,141.876155 1368.24824,124.449868 1356.47244,112.531617 C1355.72002,111.768235 1354.45258,111.888769 1353.72573,112.608321 C1353.60885,112.725202 1353.48831,112.838431 1353.37143,112.955312 C1353.07923,112.279592 1352.78337,111.600218 1352.4656,110.931803 C1351.80814,109.562099 1349.75541,109.85065 1349.10891,111.023116 C1347.77573,113.408228 1347.16576,115.997881 1347.27534,118.689806 C1345.03998,120.687748 1342.75714,122.619943 1340.43047,124.497351 C1339.64152,123.982342 1339.64882,123.985995 1338.85987,123.470986 C1339.8278,119.124459 1334.15905,119.920713 1335.26212,123.134952 C1334.55718,125.65886 1334.086,127.35364 1333.38471,129.8812 C1331.05439,131.572328 1328.69119,133.208668 1326.29147,134.786567 C1325.15553,134.114499 1323.93923,133.559312 1322.72294,133.21232 C1321.91938,132.543905 1321.20713,131.944888 1320.40357,131.276472 C1319.42469,129.83737 1317.21855,130.169751 1316.82408,131.813396 L1315.73197,136.360813 C1315.34114,137.405441 1315.08912,138.585213 1314.9138,139.761332 C1314.81883,140.155806 1314.72752,140.550281 1314.6289,140.944756 C1314.55585,141.262527 1314.5595,141.554731 1314.61429,141.817714 C1311.53154,143.527104 1308.40862,145.178054 1305.2309,146.70847 C1303.74067,144.838368 1301.93266,143.216638 1299.82149,141.89807 C1298.99236,141.375756 1297.58248,141.744663 1297.18435,142.668757 C1296.03745,145.331461 1295.56262,148.001471 1295.89865,150.879675 C1293.14829,152.019269 1290.37601,153.104074 1287.57451,154.115829 C1285.92721,152.877617 1284.4041,151.464082 1283.07092,149.827743 C1282.06282,148.593183 1280.06122,148.940174 1279.50604,150.430412 C1278.64769,152.742473 1277.95371,155.094711 1277.35469,157.479822 C1273.88477,158.513492 1270.38929,159.463153 1266.86458,160.299586 C1265.58984,158.436788 1264.48312,156.464415 1263.5919,154.367855 C1262.96367,152.892227 1260.96572,152.647506 1260.03433,153.955117 C1258.25554,156.449805 1257.37527,159.287831 1257.25474,162.304832 C1252.53565,163.166833 1247.78369,163.868121 1243.01347,164.372172 C1241.88849,163.221621 1241.55611,162.881934 1240.43478,161.731383 C1241.24199,155.697381 1234.99614,158.330865 1236.85528,161.322298 C1235.92023,162.922112 1235.61342,163.451731 1234.67837,165.051545 C1231.05504,165.270698 1227.42441,165.420452 1223.79013,165.427757 C1222.64323,163.502867 1221.89811,161.377086 1221.51095,159.068679 C1221.21509,157.28989 1218.7204,157.388508 1217.94241,158.685161 C1216.66402,160.803637 1215.08612,162.936722 1214.0488,165.190342 C1209.9543,164.9858 1205.86345,164.660723 1201.79086,164.18224 C1201.5644,162.421714 1201.07496,160.705018 1200.26775,159.010238 C1199.77831,157.983873 1198.44513,157.669754 1197.56487,158.385653 C1195.94314,159.711526 1194.68666,161.271162 1193.77718,163.057256 C1182.29723,161.183501 1170.96339,158.217636 1159.96558,154.068346 C1170.68945,142.077044 1187.33774,140.01701 1204.2892,139.841688 C1205.5822,142.197578 1205.85614,142.694324 1207.14914,145.053868 C1204.3659,149.495361 1208.71608,150.547294 1209.86664,148.5457 C1211.47741,145.744198 1212.87268,142.840426 1214.16933,139.889171 C1218.16887,139.947611 1222.11362,140.020662 1225.94513,140.009705 C1226.56607,141.967468 1227.18335,143.925232 1227.80428,145.886648 C1228.20606,147.157733 1230.15286,147.91381 1231.08061,146.671945 C1232.67312,144.542512 1233.90768,142.248714 1234.71854,139.761332 C1236.62152,139.648103 1238.48432,139.491043 1240.27772,139.260933 C1240.84751,139.187882 1241.41731,139.096569 1241.99076,139.016213 C1242.79432,141.49629 1243.92661,143.844876 1245.37301,146.036402 C1246.73907,148.103742 1249.89852,146.3213 1248.88676,143.465011 C1250.19802,140.948408 1250.77147,139.84534 1252.08639,137.33239 C1255.29698,136.696847 1258.48565,135.955381 1261.6524,135.148169 C1262.32082,136.897737 1263.45676,138.431806 1264.98352,139.564094 C1265.99893,140.312866 1267.33576,140.265383 1268.02609,139.081958 C1269.19491,137.08767 1269.94002,134.929016 1270.35276,132.693659 C1274.26464,131.481015 1278.13633,130.133226 1281.96055,128.657598 L1286.4824,133.131965 C1287.74983,134.38844 1290.94946,133.241541 1289.2145,130.458302 C1289.86465,128.098759 1290.07285,127.349988 1290.71935,124.994097 C1294.05412,123.503859 1297.3268,121.878477 1300.56295,120.187349 C1302.29061,122.053799 1304.32873,123.5623 1306.69192,124.628842 C1308.29539,125.352046 1309.8185,124.062698 1309.48977,122.378875 C1309.01494,119.935324 1309.14278,117.418721 1309.81119,115.03361 C1312.06847,113.674863 1314.29652,112.275939 1316.4917,110.814921 C1317.19298,110.343743 1317.91619,109.857955 1318.63939,109.368514 C1319.95431,111.198439 1322.07278,112.290549 1324.47616,112.13349 C1325.53174,112.067744 1326.27686,111.092515 1326.27686,110.033277 C1326.28417,107.827141 1326.49967,105.67214 1326.92701,103.531749 C1329.23542,101.829664 1331.5694,100.018002 1333.8705,98.1296366 C1336.20082,99.0537302 1335.64198,98.830925 1337.97231,99.7550186 C1338.91466,105.642919 1343.0603,103.663241 1342.60008,101.102807 C1341.97915,97.6401957 1342.38823,94.0899231 1343.76524,90.8537692 C1344.02822,90.2364893 1343.95883,89.6593874 1343.71411,89.1772516 C1344.68568,88.1801071 1345.62439,87.1646999 1346.53752,86.1346825 C1346.78589,87.1391321 1347.04888,88.132624 1347.39222,89.1224634 C1348.08985,91.1496253 1351.23469,90.8026336 1351.20182,88.541709 C1351.15068,85.3055551 1351.4575,82.1461046 1352.11496,79.0158745 C1356.34095,72.8028974 1359.24107,66.0603014 1359.81087,58.8574849 C1361.69923,35.0976871 1329.50571,19.3880959 1311.31239,11.7433216 Z" id="Page-1"></path>
        </g>
    </g>
</svg>