<?xml version="1.0" encoding="UTF-8"?>
<svg width="251px" height="184px" viewBox="0 0 251 184" version="1.1" xmlns="http://www.w3.org/2000/svg" xmlns:xlink="http://www.w3.org/1999/xlink">
    <!-- Generator: Sketch 48.2 (47327) - http://www.bohemiancoding.com/sketch -->
    <title>Stroke 11</title>
    <desc>Created with Sketch.</desc>
    <defs></defs>
    <g id="option-2" stroke="none" stroke-width="1" fill="none" fill-rule="evenodd" transform="translate(-110.000000, -668.000000)">
        <g id="page-1" transform="translate(0.000000, 199.000000)" stroke="#00EBFF" stroke-width="2">
            <path d="M352.144169,503.296543 C351.064097,501.944733 350.10769,500.558802 349.46942,499.078534 C346.960223,493.252805 344.739244,487.172169 341.745361,481.577261 C337.973586,474.529182 331.428331,469.979995 323.313331,470.000066 C318.54426,470.012109 307.712625,472.851211 310.332522,479.689544 C310.569879,480.307743 311.325829,480.810532 311.97108,480.359929 C320.101039,474.669682 326.980389,481.886361 326.999338,490.104603 C327.012303,495.731625 324.533024,500.809694 322.882499,506.053353 C322.163448,508.335473 321.534154,510.63064 321.264884,513.015124 C320.985641,515.479895 321.729624,517.624526 321.63887,519.967864 C321.201057,531.155673 308.180357,519.815321 305.748948,515.72878 C302.173641,509.719397 300.188024,502.327094 292.341297,501.139869 C288.276317,500.52468 285.383161,500.624034 281.972407,497.471817 C280.779641,496.3709 280.274012,494.832426 278.894751,493.790719 C275.259606,491.045953 269.813371,491.129249 265.537962,491.789599 C261.470988,492.417834 257.70021,493.977383 254.295441,496.275561 C248.576944,500.134291 243.988384,502.946297 237.059169,504.065279 C227.476149,505.612785 219.6743,507.432259 213.002388,514.996173 C206.296568,522.598223 202.094958,532.210426 197.052628,540.921422 C190.661954,551.962709 183.747698,562.687872 176.623014,573.261496 C168.87103,584.766433 161.40128,597.089281 152.309927,607.579608 C142.086643,619.375581 127.046418,624.34125 112.674381,616.771314 C111.26919,616.424079 110.416502,618.024774 111.500563,618.670071 C124.694793,631.678357 145.247075,631.380297 161.357399,624.373364 C171.810062,619.827188 180.943301,612.801188 189.731476,605.627662 C199.052207,598.018587 209.841956,585.988782 222.542524,585.051447 L235.6829,589.90572 C234.409353,593.053922 232.872519,596.04356 231.090351,598.881659 C228.841448,599.950462 226.539688,600.952025 224.26286,602.017818 C220.823185,603.628549 215.697082,605.344655 217.695664,610.027318 C219.078914,613.267848 222.380962,615.732618 224.206014,618.757381 C225.787726,621.378709 226.408045,624.823968 228.352772,627.179349 C232.168428,631.800793 240.858868,630.094722 245.868287,629.631072 C246.209362,629.599962 246.481624,629.430358 246.6751,629.204555 C248.61883,629.39724 250.568545,629.493583 252.535213,629.459462 C253.208388,629.447419 253.865606,628.743916 253.610298,628.038405 C252.931139,626.159721 251.565841,624.731639 249.649037,624.105411 C248.757454,623.813372 247.82598,623.706993 246.8965,623.838461 C246.290143,623.923764 244.002346,625.097942 243.660273,624.667411 C243.149657,624.027132 242.422628,624.267989 242.054626,624.799882 C239.269178,622.955319 236.387989,620.715348 235.175276,618.331867 C232.211312,612.511156 238.848319,609.152204 243.475773,606.64428 C244.425199,607.78534 245.637912,608.739736 246.836662,609.78646 C250.96846,613.392291 254.292449,617.858182 256.556311,622.872022 C258.919904,628.107652 259.929168,633.705571 259.894262,639.433954 C259.877308,642.318216 259.495344,645.693226 261.243604,648.216203 C263.016797,650.775309 266.07351,651.159677 268.93575,651.488848 C274.577455,652.138158 280.252071,652.118087 285.908736,651.712644 C286.426333,651.675512 286.819267,651.38548 286.983821,650.887709 C288.380036,646.684754 284.798745,644.203926 281.611386,642.139581 C274.660231,637.633547 267.9215,631.657282 267.502636,622.72249 C267.17652,615.765736 269.232945,609.154211 268.310446,602.121186 C267.979343,599.600215 267.420857,597.157524 266.689839,594.778057 C268.139908,590.499834 271.008132,586.775582 273.468462,582.84058 C275.675479,579.313029 277.396812,575.624905 278.723216,571.739079 C280.571206,571.600586 282.395261,571.321593 284.192389,570.87099 C283.338703,572.843007 282.495988,574.819038 281.698151,576.809119 C280.159323,580.651792 279.792318,583.830101 282.569788,587.199089 C285.685342,590.975527 290.640907,593.638 294.543327,596.472085 C296.70746,598.042673 300.970902,600.203361 302.661319,602.706267 C301.46955,604.510688 299.759187,605.935759 297.732681,606.762701 C296.58579,607.229362 296.714441,608.875218 298.028878,608.965539 C299.563717,609.071918 301.074621,608.934429 302.528679,608.569129 C302.054963,609.767393 301.485507,610.891392 301.060658,611.675181 C300.55104,612.617534 299.857919,613.325052 299.339325,614.289483 C298.767874,615.350258 299.878862,616.251465 300.865188,615.823943 C310.253736,611.755467 316.740151,604.076142 308.21227,595.454464 C305.513586,592.726758 302.790968,590.023138 300.080316,587.307475 C298.943398,586.168422 296.067196,584.272676 295.644342,582.863663 C294.828554,580.139971 296.11008,576.898437 298.158526,575.39308 C301.833563,572.692471 304.34675,569.16793 305.946413,564.98605 C306.496921,564.908775 307.05042,564.838525 307.590955,564.73315 C312.22938,565.280096 312.36202,573.147089 313.390233,576.164826 C314.310737,578.870454 315.467601,581.515867 316.647402,584.116119 C318.130382,587.380735 319.759964,590.576105 321.532159,593.69119 C322.407786,595.230667 323.005166,596.578463 323.367185,597.836941 C322.699993,598.549477 322.321021,598.953916 321.943046,599.359358 C321.060438,600.303719 320.177831,601.248079 319.295224,602.192439 C318.505365,603.037446 319.30021,604.286892 320.379285,604.068113 C321.500246,603.841306 322.559375,603.446903 323.540714,602.914007 C323.171715,604.605024 322.410777,606.392384 321.336689,608.556082 C320.779201,609.678075 322.14051,610.820139 323.087942,609.914918 C329.586324,603.71586 328.38558,591.190291 325.98409,583.33233 C325.101483,580.44606 323.240528,577.668176 322.806704,574.666495 C322.120564,569.904551 324.260762,567.77698 326.672225,564.106921 C328.657841,561.085169 329.667105,557.855678 327.555829,554.665326 C327.353378,554.35723 327.074135,554.20569 326.785916,554.165548 C326.956454,554.007987 327.129984,553.853437 327.299524,553.693869 C331.131136,550.068971 335.170186,546.033612 338.226899,541.719261 C340.880705,537.975941 341.16294,533.276218 343.454727,529.373331 C346.786693,528.811331 349.821466,527.004903 351.888861,524.263148 C355.373415,523.882794 359.315727,521.297595 359.83831,518.426379 C360.979217,512.141014 355.83616,507.914977 352.144169,503.296543 Z" id="Stroke-11"></path>
        </g>
    </g>
</svg>