<?xml version="1.0" encoding="UTF-8"?>
<svg width="209px" height="88px" viewBox="0 0 209 88" version="1.1" xmlns="http://www.w3.org/2000/svg" xmlns:xlink="http://www.w3.org/1999/xlink">
    <!-- Generator: Sketch 48.2 (47327) - http://www.bohemiancoding.com/sketch -->
    <title>Stroke 7 Copy</title>
    <desc>Created with Sketch.</desc>
    <defs></defs>
    <g id="option-2" stroke="none" stroke-width="1" fill="none" fill-rule="evenodd" transform="translate(-867.000000, -697.000000)">
        <g id="page-1" transform="translate(0.000000, 199.000000)" stroke="#FFD900" stroke-width="2">
            <path d="M1074.69506,536.138615 C1070.89188,536.042977 1067.09422,535.808027 1063.29767,535.566444 C1064.05488,534.738316 1064.81209,533.910188 1065.56985,533.082613 C1065.7847,532.847111 1065.5682,532.524815 1065.27437,532.575122 C1064.07476,532.780219 1062.9475,533.198153 1061.90585,533.815102 C1062.25988,532.846558 1062.83704,531.944904 1063.37609,531.05873 C1064.21284,529.681097 1065.11641,528.370355 1066.27791,527.244809 C1066.48503,527.044134 1066.27405,526.626754 1065.98298,526.737318 C1063.97866,527.497449 1062.48136,529.143201 1061.04205,530.676177 C1059.46521,532.355651 1058.03198,534.1573 1056.71528,536.047399 C1055.76752,536.364719 1054.85897,536.604091 1053.94877,536.840146 C1054.1222,534.827873 1055.11304,532.999137 1056.04201,531.188091 C1057.07372,529.176923 1058.13912,527.183446 1059.22993,525.203236 C1059.39396,524.90637 1058.99962,524.582969 1058.75384,524.835609 C1054.94624,528.740746 1048.6759,537.991675 1048.77311,538.100028 C1044.94231,538.941424 1041.08997,539.521888 1037.21333,539.403031 C1037.69881,539.061387 1038.14397,538.70758 1038.08929,537.994439 C1038.04621,537.43443 1037.69329,536.806977 1037.45248,536.311648 C1037.28127,535.958948 1037.11171,535.42271 1036.68478,535.303853 C1036.2468,535.182232 1035.6006,535.477439 1035.19631,535.615645 C1034.71856,535.778727 1034.24966,535.981613 1033.84813,536.293405 C1033.52945,536.541069 1033.35382,536.747272 1033.27484,537.140329 C1033.15609,537.729085 1033.14781,538.371464 1033.13786,538.998365 C1032.14592,538.829754 1031.15232,538.612495 1030.15651,538.326133 C1029.58211,538.160839 1029.01379,537.981172 1028.45044,537.789895 C1028.91658,537.509061 1029.36727,537.210537 1029.76382,536.877185 C1030.20015,536.510664 1030.5133,536.196108 1030.58786,535.59519 C1030.71766,534.549251 1029.76548,532.572358 1028.82545,532.081452 C1028.25271,531.782375 1027.42701,531.895703 1026.81285,531.865298 C1025.95567,531.822178 1025.06093,531.751417 1024.21646,531.956514 C1023.57081,532.112962 1022.88871,532.415909 1022.47393,532.960992 C1021.98624,533.602266 1022.11714,534.361291 1021.99674,535.094886 C1020.66954,534.456929 1019.35505,533.78912 1018.04167,533.117441 C1018.61441,532.930034 1019.17832,532.726595 1019.71074,532.479484 C1020.37406,532.171009 1020.85346,531.837104 1021.11912,531.139442 C1021.71064,529.588776 1020.93189,526.972268 1019.82893,525.808024 C1019.2457,525.19218 1018.55531,525.22369 1017.7495,525.223138 C1016.35603,525.221479 1014.94489,525.337572 1013.57075,525.570863 C1011.44382,525.932409 1010.38063,527.212745 1009.42403,528.982882 C1008.48401,528.594801 1007.53349,528.231597 1006.5675,527.904879 C1008.14378,527.328285 1009.59525,526.402308 1010.42481,525.032414 C1011.12072,523.883649 1011.11575,522.452392 1010.94784,521.162105 C1010.80701,520.083548 1010.46513,518.15254 1009.57868,517.390198 C1008.83638,516.752241 1007.6561,517.238725 1006.81383,517.407888 C1004.915,517.790441 1003.03495,518.27195 1001.19025,518.861258 C999.911104,519.270347 998.503827,519.746327 997.706296,520.906148 C997.008181,521.923341 996.983327,523.177695 997.052365,524.372897 C995.715783,523.833895 994.377545,523.297105 993.034887,522.769159 C994.902788,521.632004 996.568545,520.197983 996.408928,517.907087 C996.290734,516.21545 995.329721,514.751577 994.483587,513.33801 C993.683848,512.002391 992.897915,509.870156 991.566304,508.969055 C990.365038,508.155853 988.315981,508.519058 986.98934,508.674954 C985.069523,508.900505 983.191128,509.394728 981.40994,510.147672 C979.988303,510.749143 978.428037,511.486055 977.460948,512.739856 C976.413775,514.097035 976.762833,515.644385 976.608739,517.213848 C974.627616,516.700828 972.628266,516.255806 970.616766,515.878782 C972.020177,515.067791 973.41696,514.242427 974.748571,513.33801 C976.1564,512.381627 977.472547,511.146622 977.657569,509.363217 C977.876283,507.259728 976.733008,504.591255 975.897921,502.717187 C975.230182,501.217933 974.158708,499.740792 972.53106,499.210635 C970.354973,498.501364 967.827066,499.75406 965.796235,500.446746 C963.294838,501.300304 960.647081,502.139488 958.285971,503.343535 C956.630708,504.187142 955.943639,505.527736 955.765244,507.338229 C955.534932,509.675009 955.780156,512.070388 956.279993,514.365707 C954.793184,514.328668 953.305823,514.324245 951.819014,514.360731 C951.425219,514.370682 951.029768,514.384503 950.634316,514.398876 C951.759917,512.917312 952.999293,511.428562 953.262743,509.554494 C953.521222,507.709726 952.60108,506.043519 951.251243,504.845553 C949.497669,503.289911 947.106182,502.458466 945.050497,501.394283 C943.325644,500.501475 941.813429,500.058112 939.970934,500.875183 C937.804788,501.835436 935.694977,503.250108 933.779578,504.635481 C932.151379,505.81244 930.595531,507.179016 929.514667,508.893318 C928.700568,510.183606 927.76717,511.984701 928.607228,513.452997 C929.557747,515.113123 931.414049,516.51121 933.017948,517.643391 C931.72776,518.185156 930.46353,518.789944 929.22084,519.446144 C929.36444,518.889452 929.419671,518.296827 929.428508,517.691486 C929.453914,516.026385 929.276071,515.131366 927.80804,514.304344 C924.76207,512.58783 921.220128,509.966347 917.694203,511.792319 C912.683679,514.386714 908.755675,525.375164 916.026238,527.351504 C915.719708,527.540016 915.41373,527.730187 915.107752,527.918147 C914.547713,528.261449 913.985465,528.600329 913.424322,528.939762 C913.60106,527.146407 913.332639,525.424918 911.49622,524.491754 C909.638261,523.547533 907.017566,523.242928 905.315357,524.606188 C903.732447,525.87381 901.581213,528.567713 901.645833,530.72372 C901.697197,532.475061 903.699861,534.349129 905.434656,534.532113 C905.217047,534.730576 905.001095,534.932909 904.789009,535.14077 C903.774422,536.136956 902.763149,536.959556 901.639205,537.58314 C902.077737,536.485234 902.20311,535.220377 901.7458,534.108098 C901.286281,532.989739 900.039173,533.433655 899.118478,533.722781 C898.07959,534.048394 896.440896,534.72339 895.908473,535.763801 C895.308668,536.934679 896.387323,537.998309 897.06445,538.907149 C896.126634,539.006104 895.180533,539.050883 894.232775,539.072443 C894.486284,538.57435 894.642034,538.046958 894.445413,537.487501 C894.125627,536.579767 893.083425,536.510664 892.262145,536.5372 C891.538071,536.560418 889.952952,536.569816 889.637585,537.376937 C889.361984,538.082891 890.054024,538.589829 890.446161,539.126067 C889.798858,539.139334 889.152107,539.152602 888.505356,539.16587 C888.776539,538.785528 889.000775,538.387496 888.947754,537.887192 C888.853309,536.98775 887.897267,537.15028 887.20357,537.196717 C886.553505,537.239837 885.439503,537.292355 885.033558,537.905435 C884.682843,538.435039 885.067801,538.808747 885.306397,539.231103 C884.634792,539.244371 883.96374,539.258744 883.291583,539.272012 C883.418613,539.108376 883.516372,538.926498 883.518028,538.688231 C883.522999,538.130987 883.0563,537.693151 882.543207,537.570977 C882.078165,537.460966 881.336418,537.502427 881.000615,537.901012 C880.628361,538.342717 881.070206,538.89554 881.397724,539.309051 C880.247269,539.332822 879.096263,539.370414 877.952988,539.495905 C875.338369,539.784478 874.493892,541.918372 872.417772,543.278315 C871.547337,543.848275 870.542139,544.20374 869.716993,544.839486 C868.419073,545.840647 868.166117,547.36312 868.001529,548.907705 C867.978885,549.119436 868.21251,549.232212 868.385382,549.200148 C868.985187,549.089031 869.411015,548.866244 869.948962,548.587621 C870.809456,548.140941 870.811112,547.815881 871.013809,549.084056 C871.199384,550.244982 871.20325,550.044861 870.26212,550.237243 C870.137299,550.263226 870.034017,550.404195 870.03954,550.530239 C870.084829,551.629802 870.970177,552.304799 872.04607,552.373348 C873.920598,552.492758 875.336712,550.568384 877.04113,550.04265 C879.576769,549.261512 882.492948,549.793879 885.016988,550.339515 C887.574168,550.89289 890.109254,551.562911 892.647655,552.196998 C895.2446,552.845459 897.855906,553.465725 900.333,554.499503 C902.060615,555.220936 903.927963,556.239235 905.861036,555.816879 C906.924779,555.584693 906.878385,555.133038 907.871984,555.904778 C908.659573,556.515646 908.78329,556.971172 909.131243,557.854029 C909.667533,559.212314 910.523608,560.667895 910.381113,562.142272 C910.23917,563.618861 908.97494,564.75878 908.068053,565.894277 C907.210873,566.966753 906.345961,568.033147 905.497619,569.112256 C904.117957,570.866361 902.691901,572.787419 902.342291,575.052332 C901.958438,577.542797 904.051128,581.497135 901.306717,583.113588 C901.059836,583.258427 901.150966,583.571877 901.379069,583.668621 C903.826339,584.699635 907.659899,585.608475 910.241379,584.478506 C911.120651,584.093742 911.431047,583.424274 911.502295,582.488898 C911.570229,581.601066 911.462529,580.779019 911.672405,579.891739 C911.900508,578.927064 912.367207,578.040337 912.868149,577.19286 C914.752619,574.007498 916.854697,570.936017 918.847419,567.818099 C919.737737,566.423328 920.418179,565.218728 920.638549,563.553075 C920.666165,563.347425 920.688809,563.141222 920.713663,562.935019 C921.614475,563.113581 922.519153,563.260632 923.427145,563.376724 C923.363077,563.659769 923.446476,563.938945 923.571849,564.197113 C923.646963,569.74966 923.542577,575.620634 920.271818,580.353346 C920.169089,580.502608 920.266847,580.770727 920.452974,580.799473 C923.123929,581.21409 925.829678,581.393205 928.529905,581.222382 C930.785525,581.079201 930.043225,580.050952 930.190138,578.226085 C930.419898,575.377945 932.213789,572.880846 933.285264,570.308011 C934.257876,567.972889 934.916225,565.526098 935.568499,563.087045 C937.117167,562.81174 938.653131,562.446877 940.164794,561.986376 C942.518724,561.270471 944.808035,560.336202 946.987989,559.194623 C945.890003,563.057193 948.224051,566.624003 949.255207,570.279817 C949.860535,572.42532 950.335518,575.18501 949.73737,577.388559 C949.415376,578.573811 948.623368,578.842482 947.716481,579.389776 C947.292862,579.645733 947.081881,579.853041 946.937176,580.335655 C946.889678,580.493763 946.994064,580.665137 947.14871,580.709363 C950.106864,581.5491 953.203646,581.682883 956.205432,580.974718 C957.087466,580.766304 957.853515,580.633074 958.093216,579.680561 C958.238472,579.105626 958.13022,578.451084 958.15176,577.863434 C958.189869,576.8186 958.322423,575.778741 958.498056,574.749386 C959.018881,571.706099 959.962221,568.745735 960.332819,565.67536 C960.591298,563.537043 960.319563,561.324648 960.360986,559.159243 C962.064852,562.712785 963.768717,566.266327 965.472583,569.820422 C966.41758,571.790128 967.787852,573.910754 968.054064,576.1038 C968.21589,577.434997 967.890029,578.700407 966.768294,579.542908 C966.133694,580.018335 965.502408,580.280373 964.981583,580.903404 C964.835221,581.078649 964.885481,581.338475 965.115793,581.410895 C969.223297,582.695654 973.51748,582.771943 977.668616,581.639763 C977.829337,581.59609 977.920467,581.425268 977.880701,581.266608 C977.192527,578.522398 979.45367,575.815227 978.465042,573.113031 C978.028167,571.918935 976.9705,571.23233 976.145354,570.330677 C974.769006,568.824789 974.577908,566.788744 974.677876,564.837281 C974.840254,561.672373 975.523457,558.697636 973.760495,555.842862 C972.704485,554.133535 972.080931,552.516529 972.15991,550.474404 C972.228949,548.696527 972.690125,546.962876 973.196037,545.262948 C977.689051,542.630408 982.218517,540.196331 987.478132,539.588226 C992.864225,538.965748 998.303339,539.983494 1003.53037,541.216841 C1013.67513,543.609456 1023.72877,546.412265 1034.24137,546.374673 C1039.7915,546.354772 1045.31898,545.557602 1050.5659,543.72002 C1051.20271,543.930646 1051.86713,543.987034 1052.52658,544.077144 C1054.09182,544.290533 1055.66148,544.471859 1057.23444,544.619462 C1060.61732,544.93623 1064.01125,545.088808 1067.40848,545.103182 C1067.73987,545.10484 1067.83431,544.567497 1067.48912,544.507239 C1063.55504,543.815106 1059.7745,542.591157 1056.195,540.853084 C1057.48077,540.048174 1058.7914,539.286385 1060.13019,538.572139 C1062.80666,538.516304 1065.47817,538.352668 1068.13863,538.054144 C1070.37879,537.80261 1072.77745,537.647267 1074.84805,536.704152 C1075.13691,536.57258 1074.97343,536.145801 1074.69506,536.138615 Z" id="Stroke-7-Copy"></path>
        </g>
    </g>
</svg>