<?xml version="1.0" encoding="UTF-8"?>
<svg width="273px" height="164px" viewBox="0 0 273 164" version="1.1" xmlns="http://www.w3.org/2000/svg" xmlns:xlink="http://www.w3.org/1999/xlink">
    <!-- Generator: Sketch 48.2 (47327) - http://www.bohemiancoding.com/sketch -->
    <title>Stroke 5</title>
    <desc>Created with Sketch.</desc>
    <defs></defs>
    <g id="option-2" stroke="none" stroke-width="1" fill="none" fill-rule="evenodd" transform="translate(0.000000, -213.000000)">
        <g id="page-1" transform="translate(0.000000, 199.000000)" stroke="#E200FF" stroke-width="2">
            <path d="M260.91951,17.3321997 C256.367035,15.4229791 251.332712,14.6453634 246.41758,15.1502333 C240.91958,15.714585 236.181779,18.522561 230.848028,19.6556167 C229.242597,19.9965489 227.621904,20.1314711 225.994671,19.9029739 C224.62762,19.7114716 223.327432,19.1942701 221.956021,19.0383117 C219.461753,18.7546851 217.282902,20.1488804 215.146204,21.2297081 C209.679455,23.9948863 204.227968,26.8275255 199.121695,30.223791 C194.242174,33.4691758 190.12358,37.3224356 185.981002,41.4317573 C181.543356,45.8334102 176.788113,48.9881216 170.346768,49.0592096 C165.055896,49.117966 159.887848,47.7034598 154.662386,47.0810771 C149.124414,46.4216997 144.077736,47.114445 138.889339,49.1730954 C132.683467,51.6350615 127.044473,54.5736073 120.319688,55.3932955 C117.431512,55.7458339 114.562232,56.0911185 111.865196,57.2495628 C109.245197,58.37609 106.911545,60.0408549 104.658564,61.7651016 C102.200634,63.6467574 99.8081136,65.6205375 97.1430551,67.2120383 C94.1727541,68.9863367 90.9669802,70.3290295 87.699431,71.4519297 C81.5277166,73.5722381 75.1445128,75.0839462 68.871051,76.8676747 C46.2038821,83.312745 22.5170576,91.8882791 6.82613526,110.345771 C5.08770607,111.551365 -0.148657776,120.739852 0.00323674724,120.7355 C0.112251956,120.860992 0.294670738,120.919748 0.483630432,120.812391 C26.839874,105.860698 56.9513281,97.7769769 87.2699111,97.5332466 C91.0200342,97.5035057 94.7701574,97.5927284 98.5137396,97.8030909 C100.228912,97.8995675 102.162842,97.8408111 103.830048,98.2927276 C106.096111,98.9078564 107.158646,100.664746 108.091089,102.650857 C109.833879,106.361216 111.671149,110.08318 113.212624,113.880585 C113.941572,115.673744 114.476473,117.595296 113.914682,119.519024 C113.441556,121.141717 112.32524,122.482959 111.233634,123.733527 C109.67399,125.517981 108.02568,127.219015 107.156465,129.466992 C106.256,131.794036 106.200765,134.332893 106.423156,136.788331 C106.915178,142.210604 109.132548,148.249457 106.813431,153.522301 C106.269808,154.756911 105.366436,155.913179 105.677492,157.339291 C105.907151,158.394005 106.728399,159.122294 107.575084,159.721465 C109.196503,160.868303 110.911676,161.692343 112.333961,163.124259 C113.749705,164.550371 114.902359,166.211509 116.048473,167.853062 C119.236804,172.422279 123.590871,178.057091 129.924655,176.82901 C130.093992,176.796367 130.223357,176.62445 130.209548,176.453259 C130.110708,175.255644 129.905759,174.01378 129.907939,172.813263 C129.909393,172.202487 129.726247,171.815129 130.264782,171.429949 C130.614358,171.180415 131.734307,171.04912 132.008299,171.017203 C134.288897,170.747359 136.538244,171.413265 138.34499,172.808185 C138.575375,172.986631 139.043414,172.885802 138.997627,172.521657 C138.732357,170.404976 137.984513,168.578449 136.714849,166.921664 C139.1815,166.452338 141.648151,165.982286 144.114801,165.512235 C144.282685,165.480318 144.41423,165.31493 144.39388,165.145189 C144.103173,162.728922 141.793504,161.579183 139.520174,161.571929 C135.714816,161.559597 132.395666,164.503221 128.682608,162.18198 C125.4216,160.14364 123.812536,156.044474 122.032681,152.936188 C121.239777,151.472355 120.4476,150.009248 119.654696,148.54469 C118.503495,146.28148 116.751257,143.945732 116.417671,141.33361 C115.938731,137.581905 119.058746,134.849369 121.572637,132.557144 C124.173739,130.185851 126.551724,127.63974 128.593943,124.76793 C130.705931,121.799643 132.453808,118.581098 133.789608,115.193537 C134.440792,113.539653 134.827432,111.534681 136.041135,110.174579 C137.722876,108.291473 140.246215,108.968259 142.413437,109.219243 C145.510923,109.577585 147.695588,108.652716 149.987814,106.608573 C152.247336,104.594896 154.73579,100.996248 158.140698,101.700599 C157.098513,110.233336 154.811374,118.536849 151.309805,126.394249 C151.238582,126.553109 151.25239,126.734456 151.383935,126.859948 C154.64349,129.963157 157.271483,133.657557 159.044071,137.79807 C159.85369,139.689882 160.483071,141.659309 160.922039,143.668634 C161.325396,145.51402 161.240364,147.704691 162.053617,149.441995 C163.390144,152.297846 167.995673,152.307276 170.633841,152.862923 C175.376002,153.862508 180.118891,154.862092 184.861052,155.860951 C185.191732,155.930588 185.450461,155.579501 185.285485,155.285719 C184.77384,154.373906 184.262195,153.462819 183.750551,152.550281 C183.002706,151.216293 182.441642,150.763651 183.966401,149.691528 C185.925768,148.313291 188.186016,147.553085 190.564001,147.334743 C190.858342,147.307904 191.041488,147.012671 190.886686,146.745003 C189.702781,144.70086 187.52175,144.136509 185.299294,143.889877 C182.326085,143.560551 179.445904,143.438686 176.580984,142.462314 C169.700671,140.119311 163.239703,134.27994 164.927258,126.398602 C166.82921,117.514778 177.657327,109.627637 177.663868,100.286093 C177.666049,97.6522102 179.15447,95.2656845 181.568066,94.1993645 C181.761387,94.1137687 181.948893,94.0172922 182.139306,93.9237171 C182.278119,95.0393635 182.340621,96.2384295 183.101547,96.9674442 C184.197513,98.0163549 186.387992,97.986614 187.775392,98.177391 C189.922992,98.471173 192.292983,98.8077529 193.996527,100.278114 C194.801059,100.971585 196.55039,104.227125 196.655044,106.444635 C195.819988,106.817485 195.537275,106.944427 195.011822,107.178728 L194.804693,106.694894 C194.699312,106.451164 194.359911,106.288677 194.152782,106.53821 C193.235601,107.642976 194.689864,108.825358 195.622307,109.243907 C196.585275,109.676238 198.068608,109.390435 198.879681,108.747016 C200.174055,107.720592 199.390599,106.304635 199.429845,104.914067 C199.497434,104.415 199.549035,103.91811 199.599909,103.44153 C199.732907,102.205469 200.203853,100.238218 199.485079,99.1029858 C199.284491,98.7859913 199.079543,98.6684785 198.739415,98.4726238 C197.801158,97.9322099 197.034417,97.547029 196.229158,96.8209159 C195.247295,95.9352174 194.295228,95.0516951 192.92091,94.8913844 C192.548805,94.8478612 192.186874,94.8667212 191.830031,94.916773 C190.8409,94.9341823 189.867031,95.188068 188.883714,95.2751145 C188.510882,95.307757 188.172934,95.3012285 187.859697,95.2649591 C187.289911,94.8297265 187.461428,93.8490022 187.440352,92.926309 C187.414189,91.7816471 187.423637,90.6377106 187.44762,89.4930487 C188.835747,87.5417556 189.724584,85.3438307 190.988434,83.1379265 C191.331468,82.5387562 191.734825,81.99399 192.175973,81.4847678 C192.87149,83.7958532 193.553925,86.111291 194.276333,88.4143971 C194.615006,89.4930487 194.831583,90.2982291 196.088165,89.9609238 C198.287365,89.3711836 199.527959,87.5519111 201.288191,86.3680782 C202.778065,85.3663177 204.402392,85.3402038 206.087767,85.787768 C206.911195,86.0053844 207.938845,86.4246585 208.499183,87.1108753 L209.303716,88.4593711 C208.802972,90.4048611 208.09074,90.9909744 207.168471,90.2177111 C206.897387,90.047245 206.621215,90.2967783 206.595778,90.5629957 C206.478768,91.8070357 207.82765,92.4555323 208.726662,93.0786404 C209.579887,93.6698314 210.357529,94.0666185 211.201307,93.268692 C211.7224,92.7754283 211.763825,92.1595741 211.956419,91.5059997 C212.215148,90.6261044 212.877961,89.9674523 213.13233,89.1122201 C213.509522,87.8442423 212.829994,86.2491146 212.506582,85.0464217 C212.202067,83.9133661 212.015287,81.9671507 210.911327,81.2548199 C209.772481,80.5200021 207.728809,81.2519184 206.520921,81.4260114 C204.800661,81.6748194 202.977926,81.80684 201.325256,82.3762694 C199.54104,82.9913982 198.357135,84.6641424 196.674667,85.3409292 C196.715366,83.6181332 196.893424,81.9098451 197.279338,80.2240439 C197.51045,79.2135788 197.869474,78.2966886 197.846944,77.3319229 C199.102072,76.66239 200.379004,76.0429089 201.580351,75.4009407 C205.879185,73.1029123 210.175837,70.8019823 214.476851,68.5075808 C217.080134,67.1184632 219.028599,66.4431272 221.934944,67.2889294 C223.833263,67.8416748 225.615298,68.2312081 227.605916,68.0846797 C231.302258,67.8112086 234.752226,66.2400187 238.098993,64.7711084 C246.514967,61.0781594 255.201299,57.7188886 263.405783,53.5783753 C266.655163,51.9382736 269.915445,49.6939239 271.300665,46.186674 C272.490384,43.1763148 272.24837,39.7154898 269.90527,37.3485496 C269.755556,37.1969435 269.503367,37.2208813 269.35874,37.3637827 C269.335484,37.3869951 269.3115,37.4094821 269.288244,37.4326945 C269.230102,37.2984978 269.171234,37.1635757 269.108005,37.0308297 C268.977187,36.7588093 268.568744,36.8161149 268.440106,37.0489644 C268.174835,37.5226426 268.053465,38.0369425 268.075268,38.5715533 C267.630486,38.9683404 267.176256,39.3520706 266.713305,39.7249199 C266.556323,39.6226402 266.557776,39.6233656 266.400794,39.5210859 C266.593388,38.6578745 265.465444,38.816009 265.684928,39.4543502 C265.544662,39.9555932 265.450909,40.2921731 265.311369,40.7941414 C264.847691,41.129996 264.377472,41.4549697 263.899986,41.7683372 C263.673961,41.6348658 263.431947,41.5246069 263.189933,41.4556951 C263.030044,41.3229491 262.888324,41.2039855 262.728435,41.0712395 C262.533662,40.7854368 262.094694,40.8514471 262.016203,41.1778715 L261.798899,42.0809793 C261.721135,42.2884402 261.670988,42.5227405 261.636103,42.7563153 C261.617207,42.8346572 261.599038,42.9129991 261.579415,42.9913409 C261.56488,43.0544497 261.565607,43.1124807 261.576508,43.1647086 C260.963116,43.5041901 260.341729,43.8320654 259.709441,44.1360028 C259.41292,43.7646043 259.053169,43.4425321 258.633097,43.1806672 C258.468121,43.0769367 258.187589,43.1502009 258.108371,43.333724 C257.880166,43.8625316 257.785686,44.3927901 257.852549,44.9643957 C257.305292,45.1907166 256.753675,45.4061568 256.196244,45.6070892 C255.868472,45.3611828 255.565409,45.0804577 255.300139,44.755484 C255.099551,44.5103029 254.701282,44.5792148 254.590813,44.875173 C254.420023,45.3343434 254.281937,45.8014931 254.162747,46.2751713 C253.472317,46.4804561 252.7768,46.6690569 252.075469,46.8351707 C251.821827,46.4652229 251.601616,46.0735135 251.424285,45.657141 C251.299281,45.3640843 250.901739,45.3154833 250.716413,45.5751721 C250.362477,46.070612 250.187326,46.6342383 250.163342,47.2334086 C249.224358,47.4046001 248.278833,47.5438745 247.329674,47.643978 C247.105829,47.4154809 247.039693,47.3480198 246.816576,47.1195227 C246.977191,45.9211821 245.734418,46.4441867 246.104343,47.0382793 C245.91829,47.3559991 245.857242,47.4611803 245.671189,47.7789002 C244.950235,47.8224234 244.227828,47.8521643 243.504694,47.8536151 C243.276488,47.4713358 243.128228,47.0491601 243.05119,46.590715 C242.992322,46.2374512 242.49594,46.2570366 242.341138,46.5145493 C242.086769,46.9352742 241.772805,47.3589007 241.566403,47.8064649 C240.751696,47.7658432 239.937716,47.7012837 239.12737,47.6062579 C239.08231,47.256621 238.984923,46.9156887 238.824307,46.5791088 C238.72692,46.3752748 238.46165,46.3128915 238.286499,46.4550675 C237.963814,46.7183833 237.713806,47.0281238 237.53284,47.3828384 C235.248608,47.0107145 232.993447,46.4216997 230.805149,45.5976592 C232.93894,43.2162112 236.251548,42.8070925 239.624479,42.7722738 C239.881755,43.2401489 239.936262,43.3388017 240.193538,43.8074022 C239.639741,44.6894737 240.505322,44.8983854 240.734254,44.5008729 C241.054758,43.9445005 241.332384,43.3678172 241.590387,42.7817039 C242.386198,42.7933101 243.171107,42.8078178 243.933487,42.8056417 C244.057037,43.1944495 244.179861,43.5832574 244.303412,43.9727906 C244.383356,44.2252255 244.770724,44.3753808 244.955323,44.128749 C245.272193,43.7058479 245.517841,43.2503044 245.679184,42.7563153 C246.05783,42.7338283 246.428481,42.7026366 246.785325,42.6569372 C246.8987,42.6424294 247.012076,42.6242947 247.126179,42.6083362 C247.286068,43.1008745 247.511366,43.5672988 247.799166,44.0025315 C248.070977,44.413101 248.699632,44.0591117 248.498317,43.4918585 C248.759227,42.9920663 248.873329,42.7729992 249.134966,42.2739325 C249.773795,42.147715 250.408263,42.0004613 251.038371,41.8401506 C251.17137,42.1876113 251.397395,42.4922742 251.701184,42.7171444 C251.903225,42.8658489 252.169222,42.8564188 252.306581,42.6213932 C252.539147,42.2253315 252.687408,41.7966273 252.769533,41.35269 C253.547901,41.1118613 254.318275,40.8441932 255.079202,40.5511365 L255.97894,41.4397365 C256.231129,41.6892699 256.867778,41.4614982 256.522563,40.9087527 C256.651928,40.4401522 256.693353,40.2914477 256.821991,39.8235726 C257.485531,39.5276144 258.136715,39.2048168 258.780631,38.8689623 C259.124393,39.2396355 259.529929,39.5392206 260.000148,39.7510338 C260.319199,39.8946606 260.622262,39.6385987 260.556852,39.304195 C260.462373,38.8189105 260.487809,38.3191184 260.620808,37.8454402 C261.069951,37.5755959 261.513279,37.2977724 261.950067,37.0076173 C262.089606,36.9140423 262.233506,36.8175657 262.377406,36.7203638 C262.639043,37.083783 263.060568,37.300674 263.538782,37.2694823 C263.748818,37.2564253 263.897078,37.0627468 263.897078,36.8523843 C263.898532,36.4142501 263.941411,35.9862713 264.026443,35.5611941 C264.485761,35.2231634 264.950165,34.8633711 265.408029,34.4883456 C265.871707,34.6718687 265.760512,34.6276201 266.22419,34.8111432 C266.411696,35.9804682 267.236578,35.5873081 267.145005,35.0788113 C267.021454,34.3911437 267.102852,33.6860668 267.376844,33.0433732 C267.429171,32.9207827 267.415363,32.8061714 267.366669,32.7104202 C267.559989,32.5123894 267.746769,32.3107316 267.928461,32.1061722 C267.977881,32.3056539 268.030208,32.5029593 268.098525,32.6995394 C268.237337,33.1021296 268.863085,33.0332178 268.856544,32.5842028 C268.846369,31.9415092 268.907417,31.3140488 269.038236,30.6923915 C269.879106,29.4585069 270.45616,28.1194411 270.569536,26.6889764 C270.945275,21.970329 264.539541,18.8504363 260.91951,17.3321997 Z" id="Stroke-5"></path>
        </g>
    </g>
</svg>