<?xml version="1.0" encoding="UTF-8"?>
<svg width="166px" height="117px" viewBox="0 0 166 117" version="1.1" xmlns="http://www.w3.org/2000/svg" xmlns:xlink="http://www.w3.org/1999/xlink">
    <!-- Generator: Sketch 48.2 (47327) - http://www.bohemiancoding.com/sketch -->
    <title>Stroke 1</title>
    <desc>Created with Sketch.</desc>
    <defs></defs>
    <g id="option-2" stroke="none" stroke-width="1" fill="none" fill-rule="evenodd" transform="translate(-1235.000000, -668.000000)">
        <g id="page-1" transform="translate(0.000000, 199.000000)" stroke="#4F00FF" stroke-width="2">
            <path d="M1236.61819,473.801185 C1237.54355,473.005119 1239.34444,473.324663 1240.75206,473.690323 C1239.86862,471.912333 1240.97804,469.791508 1243.20386,470.016493 C1243.61296,470.057484 1244.02067,470.128287 1244.42604,470.219586 C1244.76571,470.189308 1245.11704,470.1935 1245.47628,470.246602 C1247.70723,470.576395 1249.56868,471.928636 1251.0038,473.615793 C1258.40581,474.995517 1262.33979,482.311967 1264.85403,488.796949 C1266.52631,493.111265 1268.16644,497.39018 1270.36664,501.472989 C1272.47877,505.393231 1274.92732,509.16162 1277.72346,512.629562 C1280.79171,516.436147 1284.7597,519.884991 1289.64841,521.156182 C1295.55194,522.691485 1301.79282,521.085844 1307.73083,522.485598 C1314.6231,524.109872 1320.4875,528.264415 1326.20978,532.268037 C1329.22864,534.380011 1332.20277,536.61822 1335.57109,538.154456 C1338.06297,539.291028 1340.80553,540.025141 1343.14458,541.455173 C1344.5932,542.341606 1345.86756,543.508921 1347.37956,544.293342 C1349.01829,545.142976 1350.87881,545.321381 1352.58883,545.989816 C1354.76946,546.841779 1356.86947,547.884724 1358.9434,548.967728 C1363.09544,551.136065 1367.172,553.520538 1371.63017,555.023701 C1378.47771,557.333644 1385.7022,558.125052 1392.90153,557.948511 C1395.00853,557.687658 1397.11088,557.393733 1399.20857,557.063009 C1399.50538,557.015962 1400.03329,557.317806 1399.99835,557.478044 C1399.43269,560.040455 1386.62384,562.696494 1375.83254,561.337731 C1371.61666,560.80671 1364.78683,559.454003 1360.66274,558.458105 C1356.45338,557.441711 1352.1555,556.024723 1347.8017,555.825357 C1345.25484,555.708905 1342.90555,556.790977 1340.42858,557.20741 C1339.11741,557.427271 1337.79831,557.535804 1336.47689,557.54745 C1336.68424,559.754449 1336.88739,561.961914 1337.098,564.168448 C1337.30721,566.361939 1337.62685,568.400316 1338.61651,570.390714 C1340.50639,574.189846 1342.79605,577.82874 1344.89094,581.517941 C1344.9846,581.683303 1344.93986,581.93484 1344.75815,582.024741 C1343.17207,582.811025 1341.52308,583.449182 1339.80514,583.884247 C1338.93196,584.105506 1338.0462,584.275526 1337.15391,584.397102 C1336.46478,584.490264 1335.1974,584.858718 1334.56092,584.611374 C1333.76881,584.303009 1333.93888,583.306179 1334.3834,582.74162 C1334.84794,582.150043 1335.66149,582.056881 1336.15912,581.517476 C1337.22986,580.35575 1336.03983,578.816254 1335.21138,578.011803 C1332.76703,575.63851 1330.65956,573.210251 1329.17552,570.107503 C1328.02184,567.695082 1327.28238,565.126615 1326.96274,562.48688 C1326.48934,564.107427 1326.12637,565.76058 1326.06953,567.453328 C1326.0029,569.424162 1326.40594,571.350279 1326.94178,573.236803 C1327.93983,576.754121 1329.34373,580.213212 1329.05437,583.938281 C1329.04226,584.086874 1328.94814,584.268539 1328.78226,584.295556 C1326.87794,584.602058 1324.96151,584.789313 1323.03203,584.815398 C1321.9282,584.830304 1320.82251,584.794902 1319.72195,584.711057 C1319.18425,584.670066 1318.53891,584.693822 1318.04175,584.449738 C1317.26175,584.065912 1317.22448,583.291739 1317.85816,582.736961 C1318.60368,582.084364 1319.54908,581.871024 1320.0565,580.938942 C1320.68692,579.780011 1320.11847,578.555401 1319.6884,577.423953 C1317.61121,571.964214 1317.07677,566.066616 1318.13074,560.380961 C1311.03392,559.82106 1304.13,557.864199 1297.81318,554.629161 C1301.23601,559.798701 1297.8197,566.554783 1296.47358,571.962817 C1295.95918,574.028677 1295.7481,576.142514 1295.67169,578.266134 C1295.63814,579.193092 1295.62836,580.120982 1295.6237,581.048407 C1295.61857,581.849597 1295.77792,582.898597 1295.43918,583.662522 C1294.9518,584.759967 1293.42303,584.899243 1292.38118,584.977033 C1290.7746,585.096746 1289.2202,584.742266 1287.77204,584.058459 C1287.5018,583.930828 1287.56283,583.561442 1287.77204,583.418439 C1288.84419,582.688983 1288.92013,581.282708 1289.07902,580.112598 C1289.23372,578.970436 1289.41217,577.832001 1289.61999,576.698224 C1290.07801,574.198697 1290.68886,571.738763 1291.38639,569.296065 C1292.03498,567.02525 1292.69103,564.692482 1292.32294,562.312202 C1292.0443,560.512319 1291.25685,558.852179 1290.30865,557.313148 C1288.53433,558.539621 1286.71807,559.885807 1285.31651,561.515204 C1283.41405,563.726396 1283.92147,566.299521 1284.34874,568.949969 C1284.53326,570.095392 1284.7173,571.240348 1284.90228,572.385771 C1285.06676,573.408686 1285.37755,574.507527 1285.40085,575.545348 C1285.43579,577.126767 1283.47323,577.690861 1282.19001,577.902338 C1281.31217,578.04767 1278.73409,578.220951 1278.22621,577.158442 C1277.95876,576.598075 1278.51743,576.09966 1278.77137,575.672514 C1279.38362,574.642612 1279.52201,573.449211 1279.41065,572.273045 C1279.19818,570.040426 1278.45359,567.917273 1277.97786,565.736824 C1277.62235,564.107427 1276.72121,561.102032 1277.14475,559.478225 C1277.65077,557.533941 1279.51362,556.447211 1281.0601,555.392155 C1281.66582,554.978983 1285.86027,551.047562 1285.71117,550.824439 C1285.10171,549.908195 1284.53791,548.96307 1284.07011,547.958787 C1282.18023,543.902995 1282.40481,539.394437 1282.6923,535.042391 C1282.69789,534.958545 1282.72632,534.890071 1282.76779,534.836038 C1279.57746,532.220059 1275.84383,530.232921 1272.57056,527.730133 C1269.2274,525.173312 1266.09718,522.281574 1263.6724,518.821085 C1257.85227,510.515724 1258.47663,499.806793 1254.92426,490.595435 C1253.31116,486.412943 1250.79179,482.478261 1247.13365,479.85576 C1246.08108,480.887991 1244.94417,481.259241 1243.44755,480.687694 C1243.031,480.528387 1242.63355,480.295018 1242.19509,480.198595 C1241.53671,480.053729 1241.12528,480.358367 1240.52747,480.519071 C1240.27167,480.588011 1240.01214,480.649032 1239.75866,480.646703 C1238.09896,480.755236 1236.48493,477.915203 1236.14525,476.63982 C1236.04088,476.246678 1235.97425,475.787857 1236.01385,475.356519 C1235.94769,474.799878 1236.11357,474.235784 1236.61819,473.801185 Z" id="Stroke-1"></path>
        </g>
    </g>
</svg>