<?xml version="1.0" encoding="UTF-8"?>
<svg width="204px" height="114px" viewBox="0 0 204 114" version="1.1" xmlns="http://www.w3.org/2000/svg" xmlns:xlink="http://www.w3.org/1999/xlink">
    <!-- Generator: Sketch 48.2 (47327) - http://www.bohemiancoding.com/sketch -->
    <title>Stroke 9</title>
    <desc>Created with Sketch.</desc>
    <defs></defs>
    <g id="option-2" stroke="none" stroke-width="1" fill="none" fill-rule="evenodd" transform="translate(-1151.000000, -361.000000)">
        <g id="page-1" transform="translate(0.000000, 199.000000)" stroke="#FF0827" stroke-width="2">
            <path d="M1342.31372,234.420909 C1333.16559,229.560272 1322.36008,227.499001 1312.28321,225.595841 C1301.21453,223.505425 1289.52307,222.753487 1279.75433,216.835621 C1280.31041,215.666912 1281.02454,214.604581 1281.78942,213.57431 C1282.27953,213.45773 1282.77036,213.340422 1283.26119,213.223843 C1283.94414,213.060631 1284.92798,213.000156 1285.31876,212.306508 C1285.79581,211.458392 1285.20348,210.662737 1284.43715,210.081297 C1284.89173,209.426266 1285.30136,208.752291 1285.66893,208.060828 C1286.09234,207.835684 1286.51647,207.609812 1286.93987,207.384667 C1287.50538,207.083018 1288.18398,206.803227 1288.41453,206.147468 C1288.76036,205.166743 1288.08031,204.645778 1287.23277,204.321541 C1287.61413,203.135345 1287.91138,201.919275 1288.14193,200.685718 C1288.64799,200.398641 1288.81691,200.302463 1289.32224,200.016115 C1290.80343,200.618685 1291.33051,198.926825 1290.42353,198.393474 C1289.80147,198.027706 1289.20552,197.628421 1288.63059,197.199263 C1288.71251,196.364991 1288.77704,195.528533 1288.82344,194.692804 C1288.88651,193.535753 1288.88869,192.331341 1288.81111,191.118914 C1289.08517,190.933115 1289.37082,190.760432 1289.68402,190.61325 C1290.12773,190.405593 1290.27345,189.726518 1290.01898,189.330876 C1289.58977,188.664916 1289.02282,188.114078 1288.36161,187.720622 C1288.02231,186.08268 1287.49813,184.494284 1286.72962,183.054528 C1286.9783,182.626827 1287.1871,182.173624 1287.3553,181.699291 C1287.58005,181.063933 1287.00657,180.581585 1286.45629,180.513095 C1285.93864,180.448976 1285.42171,180.414731 1284.90405,180.403801 C1283.77957,179.075524 1282.4267,177.833224 1281.00931,176.692202 C1280.96364,176.352664 1280.93609,176.150836 1280.88969,175.812027 C1281.26669,175.188327 1280.75049,174.396315 1280.08493,174.415987 C1279.47302,174.434932 1278.86909,174.511437 1278.27459,174.637488 C1277.69531,174.226546 1277.12255,173.830904 1276.5701,173.455664 C1275.77694,172.916484 1274.97146,172.408634 1274.15727,171.927015 C1274.0884,171.392207 1274.07535,170.847198 1274.12247,170.283244 C1274.1899,169.486132 1273.05889,169.034387 1272.54921,169.61947 C1271.77925,169.742607 1271.21665,169.832228 1270.44524,169.955365 C1269.3164,169.419099 1268.17307,168.927279 1267.01596,168.480634 C1266.94781,168.270791 1266.88038,168.061677 1266.81223,167.852562 C1266.6404,167.31994 1266.4954,166.699882 1265.8922,166.511898 C1265.38107,166.353058 1264.84384,166.654708 1264.37838,166.821562 C1264.02095,166.9498 1263.66352,167.078766 1263.3061,167.207003 C1261.6335,166.700611 1259.93771,166.272181 1258.2238,165.916614 C1258.14332,165.65941 1258.08967,165.376705 1258.04617,165.250654 C1257.88449,164.79235 1257.66192,164.364649 1257.16456,164.210182 C1256.66866,164.055714 1256.18798,164.318018 1255.7421,164.497987 C1255.17514,164.727503 1254.60746,164.957019 1254.04123,165.186535 C1252.05399,164.904558 1250.04934,164.702001 1248.03527,164.573764 C1247.41249,164.170107 1246.80856,163.736577 1246.23073,163.260787 C1245.71163,162.833815 1245.08595,162.921978 1244.61469,163.593039 C1244.42547,163.863358 1244.12024,164.011996 1243.79326,164.050613 C1243.47643,164.088502 1243.26183,164.221111 1243.11103,164.392337 C1241.36956,164.371207 1239.62592,164.393066 1237.88518,164.451355 C1237.66405,164.240055 1237.46757,164.000339 1237.2972,163.711804 C1237.02459,163.247672 1236.48011,163.158052 1236.02191,163.375181 C1235.2824,163.725648 1234.60235,164.149706 1233.95709,164.638611 C1231.9597,164.76102 1229.91083,164.926417 1227.82716,165.142818 C1227.58718,164.922045 1227.3849,164.662656 1227.21525,164.345705 C1226.95352,163.852428 1226.12629,163.692131 1225.75146,164.155535 C1225.35706,164.642254 1224.93583,165.098372 1224.48923,165.531902 C1222.53533,165.784005 1220.56259,166.079825 1218.58332,166.432478 C1218.33682,166.200048 1218.09104,165.96616 1217.83294,165.746116 C1217.50233,165.46414 1217.0927,165.391278 1216.70265,165.599663 C1216.14005,165.899856 1215.72099,166.409162 1215.53829,167.017561 C1214.04695,167.325768 1212.55634,167.664578 1211.07442,168.040546 C1210.87287,167.984443 1210.67132,167.929067 1210.46904,167.873692 C1209.88686,167.711938 1209.13793,167.344713 1208.53907,167.426318 C1207.74882,167.533426 1207.37254,168.314508 1207.25146,169.09632 C1205.48824,169.623842 1203.74243,170.198724 1202.02924,170.839912 C1201.82696,170.657756 1201.62903,170.469043 1201.43981,170.2643 C1201.0831,169.878131 1200.4828,169.882502 1200.12319,170.266486 C1199.58234,170.844283 1199.11761,171.475998 1198.7319,172.163089 C1197.02234,172.899725 1195.35047,173.701938 1193.73153,174.574827 C1193.36395,174.429831 1192.98985,174.295765 1192.60632,174.188657 C1191.91176,173.995573 1191.34988,174.642589 1191.37453,175.354452 C1191.22808,175.647358 1191.11643,175.872502 1190.96998,176.165408 C1189.23939,177.229925 1187.57695,178.381876 1186.00731,179.635834 C1185.37655,179.53747 1184.73855,179.483552 1184.09692,179.480638 C1183.55534,179.477723 1183.21603,179.914168 1183.16456,180.417645 C1183.10728,180.98597 1183.11816,181.543366 1183.17471,182.10149 C1182.1742,183.051613 1181.21646,184.044725 1180.316,185.094669 C1179.8404,185.179189 1179.52212,185.236021 1179.04724,185.319813 C1177.85751,184.684455 1177.12525,185.722012 1177.52473,186.532968 C1177.76688,187.026974 1177.90608,187.554496 1177.98511,188.097319 C1177.56605,188.696975 1177.16077,189.310475 1176.77435,189.940004 C1176.54597,190.310144 1176.26467,190.769175 1175.96234,191.287954 C1175.75136,191.336772 1175.64333,191.361545 1175.43236,191.411091 C1175.29026,191.317099 1175.15033,191.317099 1175.01185,191.341872 C1174.87773,191.310541 1174.732,191.309084 1174.57902,191.351344 C1174.13315,191.474481 1173.74092,192.03042 1173.92724,192.504024 C1174.11937,192.990743 1174.34702,193.428645 1174.61745,193.850517 C1174.04397,195.105933 1173.57924,196.448054 1173.46251,197.683797 C1172.82813,197.632793 1172.19883,197.661209 1171.5543,197.779246 C1171.25994,197.832435 1171.21789,198.214233 1171.38899,198.405861 C1172.07848,199.176014 1172.91296,199.739239 1173.84169,200.091892 C1174.03817,200.467132 1174.31005,200.80667 1174.67545,201.098118 C1176.08994,202.224568 1177.87273,204.023535 1178.12068,205.835617 C1178.12068,205.845818 1178.11996,205.856747 1178.11996,205.867677 C1177.51893,209.171977 1174.6566,208.053542 1172.58888,207.225828 C1170.22681,206.279348 1167.86474,205.823959 1165.42871,206.774811 C1163.90692,207.369366 1162.53086,208.189794 1160.90757,208.508202 C1159.50903,208.782164 1158.07134,208.824424 1156.73225,209.357047 C1155.28297,209.934115 1152.54389,211.621603 1152.07916,213.219471 C1151.56658,214.979821 1153.6633,217.903781 1154.91611,218.954453 C1156.51403,220.294389 1158.16559,220.178538 1159.99551,219.420771 C1161.90155,218.631674 1163.33489,218.426931 1164.66963,220.319891 C1165.27139,221.173107 1165.71509,222.150917 1166.44445,222.91087 C1168.03366,224.567027 1170.31743,224.482507 1172.4098,224.858476 C1176.00729,225.504763 1177.21007,228.656053 1179.81937,230.758127 C1181.79139,232.346522 1184.15564,233.207753 1186.64314,233.395738 C1186.73449,234.063884 1186.69317,234.752431 1186.48146,235.448265 C1185.97396,237.126281 1184.67837,237.89862 1183.38568,238.911405 C1182.74188,239.414882 1182.18145,239.938762 1181.70077,240.602536 C1181.42381,240.985791 1181.20776,241.412764 1180.92283,241.79019 C1180.1507,242.813175 1179.07914,242.919553 1177.89448,242.942869 C1174.32817,243.013546 1168.74489,244.424157 1167.47831,248.292411 C1167.34998,248.682223 1167.83791,248.871665 1168.10109,248.65745 C1168.92687,247.984932 1169.7628,247.627179 1170.74809,247.501127 C1170.31163,248.597703 1170.13908,249.700108 1170.23188,250.919821 C1170.25871,251.260087 1170.74809,251.468473 1170.92716,251.109263 C1172.03715,248.877494 1174.91615,249.708852 1176.87802,249.86842 C1178.43026,249.9952 1179.9941,250.050575 1181.55142,250.0003 C1184.20712,249.91578 1186.94039,249.48225 1189.08714,247.795491 C1190.33415,246.816223 1191.28318,245.529477 1192.37142,244.386269 C1193.58073,243.115553 1194.90749,241.968702 1196.33648,240.95446 C1197.19997,240.341689 1198.11855,239.746405 1198.87183,239.040371 C1198.89576,239.049114 1198.91316,239.062958 1198.94143,239.06733 C1210.31172,240.971947 1221.80887,242.045207 1233.33648,242.220805 C1239.14089,242.308968 1244.94892,242.174902 1250.74318,241.815691 C1255.96178,241.492912 1261.39063,241.283069 1266.3707,239.545306 C1268.01792,242.588759 1272.70363,244.65003 1275.48839,245.413626 C1276.73105,245.75535 1277.98459,245.888687 1279.26712,245.809268 C1280.07116,245.76045 1284.57345,245.496689 1281.97067,247.891669 C1281.41604,248.401704 1280.03418,248.684409 1279.32077,248.98533 C1278.67479,249.258563 1278.02664,249.430518 1277.66051,250.081906 C1277.2922,250.738394 1277.41255,251.775952 1277.24798,252.499473 C1277.01598,253.515901 1276.66217,254.471852 1276.23224,255.419789 C1276.05462,255.812516 1276.48382,256.149868 1276.81805,255.874449 C1277.2458,255.522525 1277.67283,255.171329 1278.10059,254.819405 C1278.11871,255.427076 1278.13756,256.034746 1278.15641,256.642417 C1278.16729,257.020571 1278.64942,257.14298 1278.85169,256.83113 C1279.29395,256.145497 1279.80435,255.666063 1280.45396,255.293738 C1280.46628,255.890479 1280.52138,256.474834 1280.61274,257.072304 C1280.65914,257.371039 1281.04991,257.406012 1281.23624,257.237701 C1281.89237,256.645331 1282.54778,256.05369 1283.20391,255.461321 C1283.63311,255.073694 1284.16817,254.342158 1284.68002,254.1294 C1286.17934,253.506428 1286.50269,254.68971 1287.67793,254.794632 C1287.94473,254.818676 1288.06943,254.537428 1288.03753,254.320299 C1287.654,251.751178 1289.65357,249.362028 1290.4692,247.021694 C1291.17319,245.000497 1292.56882,242.59896 1291.20074,240.644067 C1290.25895,239.297574 1287.0276,238.160924 1285.44563,238.386797 C1291.15434,237.573655 1297.27992,239.476815 1302.88132,240.228024 C1309.31721,241.090713 1315.78355,241.698383 1322.24771,242.303868 C1322.40286,242.31844 1322.50218,242.246307 1322.55584,242.1443 L1331.46907,244.436544 C1334.38577,245.186296 1338.09273,245.661357 1340.31053,247.899684 C1343.78911,251.408726 1340.61286,255.407403 1336.9842,256.888691 C1333.96889,258.120062 1330.66069,258.800595 1327.50618,259.570019 C1316.41285,262.274663 1304.27406,264.960363 1296.71949,274.343555 C1296.47444,274.648119 1296.79054,275.189485 1297.17117,274.93301 C1305.98798,268.999843 1316.5361,267.215448 1326.78263,265.390979 C1332.16073,264.43357 1337.55623,263.433172 1342.75743,261.722368 C1346.53399,260.480796 1351.19143,259.033754 1352.96843,255.099924 C1356.79429,246.629696 1349.24696,238.10482 1342.31372,234.420909 Z" id="Stroke-9"></path>
        </g>
    </g>
</svg>