<?xml version="1.0" encoding="UTF-8"?>
<svg width="240px" height="98px" viewBox="0 0 240 98" version="1.1" xmlns="http://www.w3.org/2000/svg" xmlns:xlink="http://www.w3.org/1999/xlink">
    <!-- Generator: Sketch 48.2 (47327) - http://www.bohemiancoding.com/sketch -->
    <title>Stroke 3</title>
    <desc>Created with Sketch.</desc>
    <defs></defs>
    <g id="option-2" stroke="none" stroke-width="1" fill="none" fill-rule="evenodd" transform="translate(-457.000000, -198.000000)">
        <g id="page-1" transform="translate(0.000000, 199.000000)" stroke="#00FFB0" stroke-width="2">
            <path d="M695.620188,33.5566937 C692.004339,31.552193 687.987941,30.8461365 683.909752,30.5415632 C679.151865,30.1859847 674.359085,30.1495525 669.593202,30.3273417 C667.170278,30.4176936 664.750262,30.5714376 662.334607,30.7893023 C659.886967,31.0108102 656.98571,31.8072185 654.554063,31.1951572 C650.55802,30.1896279 647.95045,25.999194 646.843306,22.3020523 C644.935062,15.9329716 648.138003,6.90361017 642.206093,2.19511006 C637.08255,-1.87145434 629.735995,0.091513671 625.976937,4.97634573 C621.914741,10.2546458 620.646214,19.4071481 625.290696,24.6992924 C620.316905,25.3652734 615.31549,23.7192657 610.665192,21.7628554 C604.959362,19.3634294 599.422185,16.7111638 593.526622,14.7795275 C577.693654,9.59303666 560.290474,9.33363925 544.30412,14.0137222 C536.242246,16.3738014 528.54312,19.999536 521.658905,24.8304484 C507.790155,34.5644089 498.575339,49.7996347 482.521378,56.5038918 C473.918653,60.0961087 466.931938,59.0563331 459.162298,53.9055459 C458.588735,53.5251935 457.851608,54.1540136 458.026076,54.7813764 C461.066907,65.7438315 470.858921,72.0990679 481.747176,73.3501504 C487.219655,73.9796991 492.846247,73.4441455 498.12463,71.8804746 C504.359679,70.0340897 509.766005,66.1190833 516.113731,64.5838296 C519.842257,63.6824964 523.091723,64.3630503 526.59344,65.7212435 C526.619611,65.7307159 526.646508,65.7416455 526.672678,65.7518465 C531.203756,67.5071509 533.656485,72.4320584 532.304359,77.1077695 C530.753048,82.4727783 529.001825,88.2895465 528.915318,89.6798 C528.60273,94.6950594 533.87457,93.4658363 539.545506,95.2787036 C542.441674,96.2048106 552.589894,97.251144 550.419222,91.3731696 C550.001226,90.2401276 549.160145,89.4313323 548.220926,88.6866577 C551.237041,88.5285419 554.120124,87.6993445 553.297944,85.1855214 C552.957731,84.1472031 551.950906,83.5249408 551.247218,82.7605928 C550.094276,81.5087817 549.024932,79.8387287 548.739968,78.1337008 C548.116972,74.410328 552.892306,69.2143647 556.359129,69.2019778 C560.42496,69.1881335 564.538769,70.6111761 568.772525,70.4078843 C573.313054,70.1892909 577.817962,69.2865005 582.093882,67.7388598 C581.373474,70.6060755 580.914769,73.5760301 580.465514,76.4702057 C579.879592,80.2431264 579.348919,84.0910975 579.204256,87.9106514 C579.093032,90.8660331 581.102322,91.6485972 583.611026,92.5419152 C586.6584,93.6275954 597.621531,96.4824241 598.078782,90.6918871 C598.330307,87.5091683 594.69483,86.4934381 593.358697,84.1588614 C591.243272,80.463177 593.730895,76.2363108 596.045503,73.3523363 C597.169368,71.9518818 598.324491,70.4712763 599.686795,69.2879578 C598.557115,76.0031446 600.887716,83.0928546 606.210443,87.4588919 C608.916878,89.6776141 612.216503,91.1290737 615.673876,91.6398535 C617.999389,91.9837736 622.06522,92.3998296 623.805538,90.3508815 C625.782841,88.0228627 623.50458,85.0951694 621.408784,83.9162228 C619.783324,83.0017741 618.029921,82.4960949 616.741039,81.06358 C615.278416,79.438703 614.656147,77.2330964 614.313753,75.139701 C614.09058,73.7764073 614.005527,72.3948975 613.974268,71.0126591 C613.947371,69.8650442 613.830332,68.7677057 614.422796,67.7461463 C615.02471,66.7063707 616.147848,66.0505908 617.101606,65.3510921 C620.526994,62.8372689 624.450342,60.3562348 628.881102,60.6943258 C633.646985,61.0579193 636.09099,65.5704141 640.214977,67.3257185 C644.123786,68.9892136 648.481124,68.2700416 652.517876,67.4765478 C658.483954,72.8772601 667.330934,74.1268853 674.5699,70.5900454 C675.278677,70.2439393 674.912294,69.1422289 674.179528,69.1451435 C671.338608,69.1560732 668.965117,67.2462962 668.149479,64.6938549 C670.019194,65.8509422 672.659476,65.6891831 674.863588,66.326747 C676.065236,66.6735817 677.233445,67.2331806 677.598374,68.5345395 C677.825909,69.3440634 677.676884,70.1346426 678.304969,70.8020809 C679.219472,71.7740925 680.739524,71.5052227 681.760161,70.8742167 C684.579273,69.1305706 684.714486,65.1448858 683.586986,62.3738511 C681.882289,58.1819599 676.023073,53.4865753 679.010837,48.5908136 C679.324153,48.0785766 678.917061,47.434455 678.34277,47.4235253 C675.892222,47.3776207 673.454759,47.1881732 671.034743,46.788876 C669.123592,46.4741016 666.954374,46.1702569 665.224233,45.229577 C662.862373,43.9442483 662.378224,41.3152993 664.213773,39.2692658 C665.684392,37.6305445 667.999001,36.8137342 670.014106,36.0923762 C678.041086,33.22006 686.775389,32.8775971 695.024089,34.9739071 C695.8579,35.1852139 696.405293,33.9916944 695.620188,33.5566937 Z" id="Stroke-3"></path>
        </g>
    </g>
</svg>